<?xml version="1.0" encoding="utf-8"?>
<!-- Generator: Adobe Illustrator 15.0.0, SVG Export Plug-In . SVG Version: 6.00 Build 0)  -->
<!DOCTYPE svg PUBLIC "-//W3C//DTD SVG 1.1//EN" "http://www.w3.org/Graphics/SVG/1.1/DTD/svg11.dtd">
<svg version="1.1" id="Layer_2" xmlns="http://www.w3.org/2000/svg" xmlns:xlink="http://www.w3.org/1999/xlink" x="0px" y="0px"
	 width="595.28px" height="841.89px" viewBox="0 0 595.28 841.89" enable-background="new 0 0 595.28 841.89" xml:space="preserve">
<path fill="#808080" d="M51.167,5.723c-35,6.75-36.5,44-36.5,44c-5.5,46.75,27,55.75,27,55.75l-34.25,63.5h19.75l29-58l12.5,0.25
	l1.75,57.75h14.5V5.723H51.167z M69.167,96.223h-15.5c-20.75-2.25-22.25-37.75-22.25-37.75c-0.25-32.5,22.5-37.75,22.5-37.75h15.25
	V96.223z"/>
<polygon fill="#808080" points="108.333,169.473 108.333,60.723 124.667,60.723 125.25,103.973 149.667,103.89 149.667,60.723 
	166.667,60.723 166.667,169.473 149,169.473 149.124,124.723 124.667,124.723 124.167,169.473 "/>
<path fill="#79818A" stroke="#696A6B" stroke-miterlimit="10" d="M246.167,156.223v-95.5h-45.25c-0.75,84.75-16.5,95.75-16.5,95.75
	h-6v34.5h15l-0.5-21.5h46.75v21.5h14.5v-34.25L246.167,156.223z M230.917,156.473h-31.5c0,0,14.75-12.25,17.875-81.25h13.625
	V156.473z"/>
<path fill="#8A90A2" stroke="#515255" stroke-miterlimit="10" d="M325.666,119.223c4.25-40-11.5-53.25-11.5-53.25
	c-22.25-18-37.75,4.75-37.75,4.75c-22,36.25-7.5,79.5-7.5,79.5c20.25,39.5,56.75,14.25,56.75,14.25l-2-9.25
	c-47.5,14.25-41.25-36-41.25-36H325.666z M295.311,72.223c0,0,13.355-5.5,14.605,34.25h-27.5
	C282.417,106.473,281.706,78.223,295.311,72.223z"/>
<path fill="#8A90A2" d="M344.916,169.473V60.723h16.25v49.75c0,0,0.5,1.75,1.75-1s23.75-48.75,23.75-48.75h17.75l-26.75,49.5
	l30.75,59.25h-18.75l-28.25-53.75v53.75H344.916z"/>
<path fill="#535457" d="M461.666,79.473l8.75-13.25c0,0-8.5-10.25-24.49-7.148c0,0-32.26,5.148-34.01,54.148
	c0,0-4.5,40.75,19.25,54.5c0,0,16,13,41-3.5l-2.75-9.5c0,0-42.75,17.865-40.5-38.99C428.916,115.733,428.666,51.723,461.666,79.473z
	"/>
</svg>
