<?xml version="1.0" encoding="UTF-8"?>
<svg width="181px" height="40px" viewBox="0 0 181 40" version="1.1" xmlns="http://www.w3.org/2000/svg" xmlns:xlink="http://www.w3.org/1999/xlink">
    <!-- Generator: Sketch 53.2 (72643) - https://sketchapp.com -->
    <title>Group 8 Copy</title>
    <desc>Created with Sketch.</desc>
    <defs>
        <rect id="path-1" x="0" y="0" width="139.285714" height="40"></rect>
    </defs>
    <g id="3ds" stroke="none" stroke-width="1" fill="none" fill-rule="evenodd">
        <g id="Group-8-Copy">
            <g id="Logo">
                <g>
                    <rect id="Container" stroke="#000000" stroke-width="1.07142857" fill="#FFED00" x="0.535714286" y="0.535714286" width="38.9285714" height="38.9285714"></rect>
                    <path d="M9.09587691,3.33374351 C7.97955055,3.34886029 6.72887179,3.78278122 5.47860542,5.00198247 C2.73028445,7.68193358 2.5,11.1066081 2.5,12.0988822 L4.00306713,10.5572748 L9.78409423,16.3438074 L11.3917703,14.7361314 L11.3917703,10.9371707 L13.0434921,12.5833867 L13.0379967,17.1751746 L15.3449015,19.4765737 L3.61767526,31.1982945 L8.24800271,35.817611 L19.9697237,24.1399359 L31.8070646,35.9497482 L36.4373926,31.3194203 L24.5890391,19.4765737 L26.9014507,17.1916918 L26.9014507,12.5833867 L28.5476668,10.9371707 L28.5476668,14.7526485 L30.1608486,16.3438074 L35.9363697,10.5572748 L37.5,12.0988822 C37.5,11.1021079 37.203647,7.68193358 34.4553264,5.00198247 C31.3759468,2.00086975 28.2969378,3.75514987 27.2317951,4.82029371 L21.6599856,10.3976078 L23.0364214,11.785055 L19.9697237,14.8517515 L16.8920147,11.785055 L18.2849676,10.3976078 L12.7021467,4.82029371 C12.0734567,4.18786438 10.7274415,3.31163636 9.0958873,3.33374351 L9.09587691,3.33374351 Z" id="Shape" fill="#000000"></path>
                </g>
                <g id="Type" transform="translate(45.714286, 0.000000)">
                    <mask id="mask-2" fill="white">
                        <use xlink:href="#path-1"></use>
                    </mask>
                    <g id="Mask"></g>
                    <path d="M0.710641399,39.0557143 L2.66774781,22.8571429 L13.1298105,22.8571429 L12.694898,26.4271429 L6.31618076,26.4271429 L5.95375364,29.2928571 L8.12831633,29.2928571 C9.79548105,29.2928571 11.2693513,29.5842857 12.2841472,30.6771429 C13.1539723,31.6 13.3472668,32.7414286 13.3472668,33.5671429 C13.3472668,35.2185714 12.7432216,36.5785714 11.8975583,37.4042857 C10.4961735,38.7885714 8.27328717,39.0557143 6.26785714,39.0557143 L0.710641399,39.0557143 Z M5.1805758,35.8257143 L6.48531341,35.8257143 C7.04103499,35.8257143 7.93502187,35.7528571 8.44241983,35.4128571 C9.07062682,35 9.16727405,34.32 9.16727405,33.9071429 C9.16727405,33.64 9.11895044,33.1542857 8.78068513,32.8385714 C8.39409621,32.4985714 7.69340379,32.45 6.92022595,32.45 L5.59132653,32.45 L5.1805758,35.8257143 Z M25.4764942,36.3357143 L19.725984,36.3357143 L18.4937318,39.0557143 L13.951312,39.0557143 L21.9488703,22.8571429 L26.5396137,22.8571429 L30.4296647,39.0557143 L26.1530248,39.0557143 L25.4764942,36.3357143 Z M22.8428571,29.5114286 L21.224016,33.13 L24.7033163,33.13 L24.0267857,30.0457143 C23.7610058,28.8071429 23.736844,28.6614286 23.6643586,28.1757143 C23.6401968,28.0542857 23.5918732,27.86 23.5677114,27.5928571 C23.3019315,28.4428571 23.0844752,28.9528571 22.8428571,29.5114286 Z M44.1294096,22.8571429 L48.2127551,22.8571429 L46.2314869,39.0557143 L42.1481414,39.0557143 L42.945481,32.4257143 L37.0258382,32.4257143 L36.2043367,39.0557143 L32.1209913,39.0557143 L34.1022595,22.8571429 L38.185605,22.8571429 L37.4607507,28.8557143 L43.3803936,28.8557143 L44.1294096,22.8571429 Z M51.5954082,22.8571429 L55.6787536,22.8571429 L54.8089286,29.9485714 L60.1245262,22.8571429 L64.8119169,22.8571429 L58.650656,31.1142857 L64.1595481,39.0557143 L59.2547012,39.0557143 L55.7995627,33.8828571 C55.3646501,33.2271429 54.9055758,32.3771429 54.5914723,31.7457143 L53.6974854,39.0557143 L49.6141399,39.0557143 L51.5954082,22.8571429 Z" id="Банк" fill="#000000" mask="url(#mask-2)"></path>
                    <path d="M7.83411079,11.1142857 L5.35539359,11.1142857 L5.35539359,16.1657143 L1.4212828,16.1657143 L1.4212828,0.92 L7.69766764,0.92 C9.01661808,0.92 10.3810496,1.17142857 11.5408163,2.29142857 C12.7233236,3.43428571 12.9507289,4.71428571 12.9507289,5.99428571 C12.9507289,7.20571429 12.7915452,8.62285714 11.6090379,9.78857143 C10.4265306,10.9542857 9.01661808,11.1142857 7.83411079,11.1142857 Z M5.35539359,4.12 L5.35539359,7.91428571 L6.67434402,7.91428571 C7.08367347,7.91428571 7.85685131,7.86857143 8.33440233,7.43428571 C8.81195335,7.02285714 8.83469388,6.40571429 8.83469388,6.04 C8.83469388,5.62857143 8.78921283,5.08 8.37988338,4.66857143 C7.92507289,4.18857143 7.19737609,4.12 6.69708455,4.12 L5.35539359,4.12 Z M21.6965662,6.93142857 L21.6965662,5.94857143 L25.3350502,5.94857143 L25.3350502,16.1657143 L21.6965662,16.1657143 L21.6965662,15.0457143 C20.8551668,16.2114286 19.5362164,16.5085714 18.5356333,16.5085714 C17.4440881,16.5085714 16.1023972,16.1885714 14.8744088,14.8857143 C13.8965662,13.8342857 13.4190152,12.6685714 13.4190152,11.1371429 C13.4190152,9.21714286 14.1694525,7.86857143 14.9881114,7.04571429 C15.8522514,6.17714286 17.1939423,5.60571429 18.6493359,5.60571429 C20.2866537,5.60571429 21.2644963,6.45142857 21.6965662,6.93142857 Z M19.4679948,8.71428571 C19.0131843,8.71428571 18.3991902,8.87428571 17.8761581,9.37714286 C17.3758665,9.85714286 17.1484613,10.52 17.1484613,11.0457143 C17.1484613,11.64 17.3986071,12.28 17.8534176,12.7142857 C18.2400065,13.08 18.8767412,13.4 19.4907353,13.4 C20.081989,13.4 20.6732426,13.1485714 21.1280531,12.6914286 C21.4464205,12.3714286 21.8102689,11.8685714 21.8102689,11.0457143 C21.8102689,10.5657143 21.6738257,9.92571429 21.1053126,9.37714286 C20.7642047,9.05714286 20.2411727,8.71428571 19.4679948,8.71428571 Z M27.6680596,5.94857143 L31.3065436,5.94857143 L31.3065436,11.2057143 L35.3316165,5.94857143 L38.4925494,5.94857143 L38.4925494,16.1657143 L34.8540654,16.1657143 L34.8540654,10.7714286 L30.8744736,16.1657143 L27.6680596,16.1657143 L27.6680596,5.94857143 Z M34.8313249,0.714285714 L37.2645611,1.58285714 C36.9689342,2.68 36.309459,3.32 35.7182054,3.68571429 C34.8540654,4.23428571 33.8762229,4.32571429 33.0803045,4.32571429 C32.2843861,4.32571429 31.3065436,4.23428571 30.4424036,3.68571429 C29.85115,3.32 29.1916748,2.68 28.8960479,1.58285714 L31.3292841,0.714285714 C31.4202462,1.03428571 31.6021704,1.42285714 31.8523162,1.67428571 C32.2389051,2.08571429 32.6937156,2.13142857 33.0803045,2.13142857 C33.4668934,2.13142857 33.9217039,2.08571429 34.3082928,1.67428571 C34.5584386,1.42285714 34.7403628,1.03428571 34.8313249,0.714285714 Z M49.8535471,21.4 L46.2150632,21.4 L46.2150632,16.3257143 L46.1468416,16.3257143 C44.8506317,16.3257143 43.1678329,16.12 41.8261419,14.7714286 C40.8482993,13.8114286 40.4162294,12.5771429 40.4162294,11.0685714 C40.4162294,9.94857143 40.6436346,8.44 41.917104,7.25142857 C42.7585034,6.47428571 44.1229349,5.78857143 46.1468416,5.78857143 L46.2150632,5.78857143 L46.2150632,0.92 L49.8535471,0.92 L49.8535471,5.78857143 L49.9217687,5.78857143 C51.9456754,5.78857143 53.3101069,6.47428571 54.1515063,7.25142857 C55.4249757,8.44 55.652381,9.94857143 55.652381,11.0685714 C55.652381,12.5771429 55.220311,13.8114286 54.2424684,14.7714286 C52.9007775,16.12 51.2179786,16.3257143 49.9217687,16.3257143 L49.8535471,16.3257143 L49.8535471,21.4 Z M49.6034014,8.41714286 L49.6034014,13.6971429 L49.6488824,13.6971429 C50.1719145,13.6971429 50.7859087,13.6285714 51.3544218,13.1028571 C52.013897,12.5085714 52.1503401,11.7085714 52.1503401,11.0457143 C52.1503401,10.4742857 52.0366375,9.67428571 51.3771623,9.03428571 C50.7859087,8.46285714 50.149174,8.41714286 49.6716229,8.41714286 L49.6034014,8.41714286 Z M46.4652089,8.41714286 L46.3969874,8.41714286 C45.9194364,8.41714286 45.2827017,8.46285714 44.691448,9.03428571 C44.0319728,9.67428571 43.9182702,10.4742857 43.9182702,11.0457143 C43.9182702,11.7085714 44.0547133,12.5085714 44.7141885,13.1028571 C45.2827017,13.6285714 45.8966958,13.6971429 46.4197279,13.6971429 L46.4652089,13.6971429 L46.4652089,8.41714286 Z M66.6040493,21.4 L62.9655653,21.4 L62.9655653,16.3257143 L62.8973437,16.3257143 C61.6011338,16.3257143 59.918335,16.12 58.576644,14.7714286 C57.5988014,13.8114286 57.1667315,12.5771429 57.1667315,11.0685714 C57.1667315,9.94857143 57.3941367,8.44 58.6676061,7.25142857 C59.5090055,6.47428571 60.873437,5.78857143 62.8973437,5.78857143 L62.9655653,5.78857143 L62.9655653,0.92 L66.6040493,0.92 L66.6040493,5.78857143 L66.6722708,5.78857143 C68.6961775,5.78857143 70.060609,6.47428571 70.9020084,7.25142857 C72.1754778,8.44 72.4028831,9.94857143 72.4028831,11.0685714 C72.4028831,12.5771429 71.9708131,13.8114286 70.9929705,14.7714286 C69.6512796,16.12 67.9684807,16.3257143 66.6722708,16.3257143 L66.6040493,16.3257143 L66.6040493,21.4 Z M66.3539035,8.41714286 L66.3539035,13.6971429 L66.3993845,13.6971429 C66.9224166,13.6971429 67.5364108,13.6285714 68.1049239,13.1028571 C68.7643991,12.5085714 68.9008423,11.7085714 68.9008423,11.0457143 C68.9008423,10.4742857 68.7871396,9.67428571 68.1276644,9.03428571 C67.5364108,8.46285714 66.8996761,8.41714286 66.4221251,8.41714286 L66.3539035,8.41714286 Z M63.2157111,8.41714286 L63.1474895,8.41714286 C62.6699385,8.41714286 62.0332038,8.46285714 61.4419501,9.03428571 C60.7824749,9.67428571 60.6687723,10.4742857 60.6687723,11.0457143 C60.6687723,11.7085714 60.8052154,12.5085714 61.4646907,13.1028571 C62.0332038,13.6285714 62.6471979,13.6971429 63.17023,13.6971429 L63.2157111,13.6971429 L63.2157111,8.41714286 Z M82.1947846,6.93142857 L82.1947846,5.94857143 L85.8332686,5.94857143 L85.8332686,16.1657143 L82.1947846,16.1657143 L82.1947846,15.0457143 C81.3533852,16.2114286 80.0344347,16.5085714 79.0338517,16.5085714 C77.9423065,16.5085714 76.6006155,16.1885714 75.3726272,14.8857143 C74.3947846,13.8342857 73.9172336,12.6685714 73.9172336,11.1371429 C73.9172336,9.21714286 74.6676709,7.86857143 75.4863298,7.04571429 C76.3504697,6.17714286 77.6921607,5.60571429 79.1475543,5.60571429 C80.7848721,5.60571429 81.7627146,6.45142857 82.1947846,6.93142857 Z M79.9662132,8.71428571 C79.5114027,8.71428571 78.8974085,8.87428571 78.3743764,9.37714286 C77.8740849,9.85714286 77.6466796,10.52 77.6466796,11.0457143 C77.6466796,11.64 77.8968254,12.28 78.3516359,12.7142857 C78.7382248,13.08 79.3749595,13.4 79.9889537,13.4 C80.5802073,13.4 81.171461,13.1485714 81.6262715,12.6914286 C81.9446388,12.3714286 82.3084872,11.8685714 82.3084872,11.0457143 C82.3084872,10.5657143 82.1720441,9.92571429 81.603531,9.37714286 C81.2624231,9.05714286 80.739391,8.71428571 79.9662132,8.71428571 Z M88.166278,5.94857143 L91.8047619,5.94857143 L91.8047619,11.2057143 L95.8298348,5.94857143 L98.9907678,5.94857143 L98.9907678,16.1657143 L95.3522838,16.1657143 L95.3522838,10.7714286 L91.372692,16.1657143 L88.166278,16.1657143 L88.166278,5.94857143 Z M95.3295433,0.714285714 L97.7627794,1.58285714 C97.4671526,2.68 96.8076774,3.32 96.2164237,3.68571429 C95.3522838,4.23428571 94.3744412,4.32571429 93.5785229,4.32571429 C92.7826045,4.32571429 91.8047619,4.23428571 90.940622,3.68571429 C90.3493683,3.32 89.6898931,2.68 89.3942663,1.58285714 L91.8275024,0.714285714 C91.9184645,1.03428571 92.1003887,1.42285714 92.3505345,1.67428571 C92.7371234,2.08571429 93.1919339,2.13142857 93.5785229,2.13142857 C93.9651118,2.13142857 94.4199223,2.08571429 94.8065112,1.67428571 C95.056657,1.42285714 95.2385812,1.03428571 95.3295433,0.714285714 Z M102.051474,9.10285714 L100.846226,6.72571429 C101.391999,6.42857143 101.86955,6.22285714 102.529025,6.01714286 C103.347684,5.76571429 104.05264,5.60571429 105.121445,5.60571429 C106.622319,5.60571429 107.918529,5.90285714 108.759929,6.74857143 C109.305701,7.29714286 109.487626,7.84571429 109.487626,8.55428571 C109.487626,9.08 109.396663,9.60571429 108.987334,10.0857143 C108.714448,10.4057143 108.327859,10.68 107.96401,10.84 L107.96401,10.8857143 C108.509783,10.9771429 109.032815,11.2514286 109.373923,11.5942857 C109.69229,11.9142857 109.987917,12.44 109.987917,13.1714286 C109.987917,13.9942857 109.624069,14.84 109.055556,15.3885714 C108.145935,16.28 106.758763,16.5085714 105.144185,16.5085714 C104.166343,16.5085714 103.370424,16.3942857 102.506284,16.12 C101.710366,15.8685714 101.073631,15.5485714 100.482378,15.1828571 L101.824069,12.6457143 C102.142436,12.8971429 102.688209,13.24 103.097538,13.4228571 C103.529608,13.6057143 104.189083,13.7428571 104.689375,13.7428571 C105.007742,13.7428571 105.530774,13.6742857 105.78092,13.56 C106.053806,13.4228571 106.258471,13.1257143 106.258471,12.8742857 C106.258471,12.6457143 106.099287,12.4171429 105.849142,12.3028571 C105.598996,12.1885714 104.939521,12.1428571 104.666634,12.1428571 L103.415905,12.1428571 L103.415905,9.76571429 L104.439229,9.76571429 C104.757596,9.76571429 105.32611,9.69714286 105.576255,9.60571429 C105.962844,9.46857143 106.053806,9.19428571 106.053806,9.01142857 C106.053806,8.66857143 105.826401,8.50857143 105.621736,8.41714286 C105.576255,8.39428571 105.212407,8.23428571 104.575672,8.23428571 C104.0299,8.23428571 103.59783,8.34857143 103.1885,8.50857143 C102.75643,8.66857143 102.438063,8.82857143 102.051474,9.10285714 Z M122.485941,11.3428571 L122.485941,11.7314286 L114.913346,11.7314286 C114.913346,12.28 115.118011,13.0114286 115.550081,13.4457143 C115.777486,13.6742857 116.232297,13.9485714 117.050956,13.9485714 C117.141918,13.9485714 117.778652,13.9257143 118.233463,13.6742857 C118.460868,13.5371429 118.711014,13.3085714 118.870198,12.9885714 L122.349498,12.9885714 C122.190314,13.56 121.871947,14.36 121.12151,15.0914286 C120.371072,15.8228571 119.188565,16.5085714 116.982734,16.5085714 C115.641043,16.5085714 114.026466,16.2114286 112.775737,14.9542857 C112.116262,14.2914286 111.274862,13.0342857 111.274862,11.0914286 C111.274862,9.37714286 111.911597,8.00571429 112.798478,7.13714286 C113.639877,6.31428571 114.958827,5.65142857 116.959994,5.65142857 C118.142501,5.65142857 119.666116,5.90285714 120.871364,7.04571429 C122.304017,8.41714286 122.485941,10.2 122.485941,11.3428571 Z M115.027049,9.62857143 L119.143084,9.62857143 C119.052122,9.24 118.824717,8.80571429 118.55183,8.53142857 C118.074279,8.05142857 117.414804,7.98285714 117.050956,7.98285714 C116.436961,7.98285714 115.95941,8.14285714 115.572822,8.53142857 C115.322676,8.80571429 115.095271,9.17142857 115.027049,9.62857143 Z M124.409621,16.1657143 L124.409621,5.94857143 L128.048105,5.94857143 L128.048105,9.4 L131.436443,9.4 L131.436443,5.94857143 L135.074927,5.94857143 L135.074927,16.1657143 L131.436443,16.1657143 L131.436443,12.28 L128.048105,12.28 L128.048105,16.1657143 L124.409621,16.1657143 Z" id="Райффайзен" fill="#000000" mask="url(#mask-2)"></path>
                </g>
            </g>
        </g>
    </g>
</svg>